<?xml version="1.0" encoding="UTF-8" ?>
<!DOCTYPE svg PUBLIC "-//W3C//DTD SVG 20010904//EN" "http://www.w3.org/TR/2001/REC-SVG-20010904/DTD/svg10.dtd">
<svg xmlns="http://www.w3.org/2000/svg" width="0.555556in" height="0.544444in" viewBox="0 0 50 49">
  <path id="Imported Path #7" fill="#fff" stroke="none" stroke-width="1" d="M 50.26,25.01
           C 50.26,35.95 43.17,45.23 33.34,48.51
             32.08,48.75 31.64,47.98 31.64,47.32
             31.64,46.50 31.66,43.83 31.66,40.52
             31.66,38.21 30.87,36.70 29.98,35.94
             35.50,35.32 41.29,33.23 41.29,23.72
             41.29,21.01 40.33,18.80 38.74,17.07
             39.00,16.45 39.85,13.93 38.50,10.52
             38.50,10.52 36.42,9.85 31.70,13.06
             29.72,12.51 27.60,12.23 25.49,12.22
             23.39,12.23 21.27,12.51 19.30,13.06
             14.56,9.85 12.48,10.52 12.48,10.52
             11.14,13.93 11.99,16.45 12.24,17.07
             10.66,18.80 9.69,21.01 9.69,23.72
             9.69,33.21 15.47,35.33 20.97,35.96
             20.27,36.57 19.63,37.67 19.40,39.27
             17.99,39.90 14.41,40.99 12.20,37.21
             12.20,37.21 10.89,34.83 8.40,34.66
             8.40,34.66 5.98,34.62 8.23,36.16
             8.23,36.16 9.85,36.92 10.98,39.79
             10.98,39.79 12.43,44.21 19.32,42.71
             19.33,44.78 19.36,46.73 19.36,47.32
             19.36,47.97 18.90,48.74 17.67,48.51
             7.83,45.23 0.73,35.95 0.73,25.01
             0.73,11.33 11.82,0.25 25.49,0.25
             39.17,0.25 50.26,11.33 50.26,25.01 Z
           M 10.11,35.80
           C 10.17,35.68 10.07,35.51 9.89,35.43
             9.71,35.34 9.52,35.38 9.46,35.51
             9.40,35.63 9.51,35.80 9.69,35.88
             9.86,35.96 10.06,35.93 10.11,35.80
             10.11,35.80 10.11,35.80 10.11,35.80 Z
           M 9.80,35.58M 11.11,36.92
           C 11.24,36.81 11.20,36.58 11.04,36.41
             10.88,36.23 10.66,36.18 10.53,36.29
             10.41,36.40 10.44,36.63 10.61,36.81
             10.76,36.98 10.99,37.03 11.11,36.92
             11.11,36.92 11.11,36.92 11.11,36.92 Z
           M 10.88,36.67M 12.09,38.35
           C 12.24,38.24 12.24,37.98 12.09,37.75
             11.94,37.53 11.69,37.44 11.54,37.54
             11.38,37.65 11.38,37.91 11.54,38.13
             11.69,38.35 11.94,38.45 12.09,38.35
             12.09,38.35 12.09,38.35 12.09,38.35 Z
           M 12.09,38.35M 13.43,39.73
           C 13.57,39.58 13.51,39.29 13.29,39.09
             13.08,38.89 12.79,38.85 12.65,39.00
             12.51,39.15 12.57,39.43 12.79,39.63
             13.00,39.83 13.29,39.87 13.43,39.73
             13.43,39.73 13.43,39.73 13.43,39.73 Z
           M 13.43,39.73M 15.27,40.53
           C 15.33,40.33 15.15,40.10 14.87,40.02
             14.58,39.93 14.30,40.02 14.25,40.22
             14.19,40.41 14.37,40.64 14.65,40.72
             14.93,40.81 15.21,40.72 15.27,40.53
             15.27,40.53 15.27,40.53 15.27,40.53 Z
           M 15.27,40.53M 17.30,40.67
           C 17.30,40.47 17.06,40.31 16.76,40.31
             16.47,40.32 16.23,40.48 16.23,40.69
             16.24,40.89 16.48,41.06 16.77,41.05
             17.07,41.05 17.31,40.88 17.30,40.67
             17.30,40.67 17.30,40.67 17.30,40.67 Z
           M 17.30,40.67M 19.18,40.35
           C 19.15,40.15 18.88,40.03 18.59,40.08
             18.30,40.13 18.10,40.34 18.13,40.54
             18.17,40.74 18.44,40.86 18.72,40.81
             19.01,40.76 19.22,40.55 19.18,40.35
             19.18,40.35 19.18,40.35 19.18,40.35 Z
           M 19.18,40.35" />
</svg>
