<?xml version="1.0" encoding="UTF-8" standalone="no"?>
<!DOCTYPE svg PUBLIC "-//W3C//DTD SVG 20010904//EN"
              "http://www.w3.org/TR/2001/REC-SVG-20010904/DTD/svg10.dtd">

<svg xmlns="http://www.w3.org/2000/svg"
     width="32px" height="32px"
     viewBox="0 0 32 32">
  <path id="head"
        fill="white"
        d="M 15.98,24.20
           C 15.98,24.20 25.92,23.10 29.18,16.45
             30.43,14.17 29.82,16.60 26.11,12.01
             22.40,7.41 15.94,7.80 15.94,7.80
             15.94,7.80 9.60,7.46 5.89,12.05
             2.15,16.53 1.44,14.17 2.69,16.45
             5.95,23.10 15.98,24.20 15.98,24.20 Z" />
  <path id="left ear"
        fill="white"
        d="M 5.65,13.45
           C 5.65,13.45 3.41,9.21 3.63,7.44
             4.83,6.69 9.86,7.29 9.94,9.78
             8.51,11.76 5.65,13.45 5.65,13.45 Z" />
  <path id="right ear"
        fill="white"
        d="M 26.22,13.45
           C 26.22,13.45 28.46,9.21 28.25,7.44
             27.04,6.69 22.02,7.29 21.93,9.78
             23.36,11.76 26.22,13.45 26.22,13.45 Z" />
  <path id="left inner ear"
        fill="black"
        d="M 8.49,10.58
           C 8.53,9.33 5.62,8.57 4.52,8.34
             4.30,9.66 5.91,12.56 6.11,12.52
             6.31,12.49 8.50,10.88 8.49,10.58 Z" />
  <path id="right inner ear"
        fill="black"
        d="M 23.38,10.58
           C 23.35,9.33 26.25,8.57 27.35,8.34
             27.57,9.66 25.96,12.56 25.76,12.52
             25.56,12.49 23.38,10.88 23.38,10.58 Z" />
  <path id="mask 2"
        fill="black"
        d="M 22.38,13.52
           C 21.40,13.01 19.84,15.06 16.00,15.18
             12.14,15.23 10.56,12.88 9.41,13.64
             8.26,14.40 7.47,15.04 6.66,16.26
             7.67,17.80 9.58,18.92 11.37,19.34
             13.80,19.26 13.63,17.44 15.94,17.61
             18.84,17.40 18.54,19.26 20.46,19.22
             22.46,18.71 24.77,17.37 25.51,15.46
             24.41,14.28 23.36,14.02 22.38,13.52 Z" />
  <path id="right eye"
        fill="white"
        d="M 20.56,16.96
           C 19.63,17.11 17.76,16.63 18.25,16.14
             18.74,15.65 21.96,15.26 22.04,15.31
             22.13,15.36 21.50,16.81 20.56,16.96 Z" />
  <path id="left eye"
        fill="white"
        d="M 11.95,16.96
           C 12.88,17.11 14.75,16.63 14.26,16.14
             13.77,15.65 10.56,15.26 10.47,15.31
             10.39,15.36 11.02,16.81 11.95,16.96 Z" />
  <path id="nose"
        fill="black"
        d="M 16.21,21.60
           C 17.31,21.45 18.40,19.98 18.01,19.49
             17.61,19.00 14.70,18.93 14.42,19.53
             14.15,20.13 15.14,21.37 16.21,21.60 Z" />
</svg>
